<svg width="75" height="75" viewBox="0 0 75 75" fill="none" xmlns="http://www.w3.org/2000/svg">
<g clip-path="url(#clip0)">
<path d="M74.9267 22.0502C74.751 18.0652 74.1065 15.3255 73.1834 12.9515C72.231 10.4316 70.7659 8.17554 68.8464 6.30006C66.9709 4.39539 64.6999 2.91538 62.2092 1.97793C59.8215 1.05478 57.0961 0.410351 53.1111 0.23465C49.0963 0.0440683 47.8218 0 37.6391 0C27.4565 0 26.1819 0.0440683 22.182 0.219769C18.197 0.395471 15.4573 1.04047 13.0839 1.96305C10.5634 2.91538 8.30734 4.38051 6.43186 6.30006C4.52719 8.17554 3.04776 10.4465 2.10973 12.9372C1.18658 15.3255 0.542156 18.0503 0.366455 22.0353C0.175874 26.0501 0.131805 27.3247 0.131805 37.5073C0.131805 47.69 0.175874 48.9645 0.351575 52.9644C0.527276 56.9495 1.17228 59.6892 2.09542 62.0631C3.04776 64.583 4.52719 66.8391 6.43186 68.7146C8.30734 70.6193 10.5783 72.0993 13.069 73.0367C15.4573 73.9599 18.1821 74.6043 22.1677 74.78C26.167 74.9563 27.4422 74.9998 37.6248 74.9998C47.8075 74.9998 49.082 74.9563 53.0819 74.78C57.067 74.6043 59.8066 73.9599 62.18 73.0367C67.2204 71.088 71.2055 67.103 73.1542 62.0631C74.0768 59.6749 74.7218 56.9495 74.8975 52.9644C75.0732 48.9645 75.1172 47.69 75.1172 37.5073C75.1172 27.3247 75.1024 26.0501 74.9267 22.0502ZM68.1728 52.6714C68.0114 56.3342 67.3961 58.3122 66.8833 59.6308C65.6231 62.8981 63.0299 65.4913 59.7626 66.7515C58.444 67.2643 56.4517 67.8796 52.8032 68.0404C48.8474 68.2167 47.6609 68.2602 37.654 68.2602C27.647 68.2602 26.4458 68.2167 22.5042 68.0404C18.8414 67.8796 16.8635 67.2643 15.5449 66.7515C13.9189 66.1506 12.4389 65.1983 11.2376 63.9529C9.99224 62.7367 9.03991 61.2716 8.43897 59.6457C7.92618 58.327 7.31094 56.3342 7.15012 52.6863C6.97384 48.7304 6.93035 47.5435 6.93035 37.5365C6.93035 27.5296 6.97384 26.3283 7.15012 22.3873C7.31094 18.7245 7.92618 16.7465 8.43897 15.4279C9.03991 13.8014 9.99224 12.322 11.2525 11.1201C12.4681 9.87475 13.9332 8.92241 15.5597 8.32205C16.8783 7.80926 18.8712 7.19402 22.5191 7.03262C26.4749 6.85692 27.6619 6.81285 37.6683 6.81285C47.6901 6.81285 48.8765 6.85692 52.8181 7.03262C56.4809 7.19402 58.4588 7.80926 59.7774 8.32205C61.4034 8.92241 62.8834 9.87475 64.0847 11.1201C65.3301 12.3363 66.2824 13.8014 66.8833 15.4279C67.3961 16.7465 68.0114 18.7388 68.1728 22.3873C68.3484 26.3431 68.3925 27.5296 68.3925 37.5365C68.3925 47.5435 68.3484 48.7156 68.1728 52.6714Z" />
<path d="M37.639 18.241C27.0025 18.241 18.3726 26.8704 18.3726 37.5074C18.3726 48.1445 27.0025 56.7739 37.639 56.7739C48.2761 56.7739 56.9055 48.1445 56.9055 37.5074C56.9055 26.8704 48.2761 18.241 37.639 18.241ZM37.639 50.0051C30.7386 50.0051 25.1414 44.4084 25.1414 37.5074C25.1414 30.6064 30.7386 25.0098 37.639 25.0098C44.54 25.0098 50.1367 30.6064 50.1367 37.5074C50.1367 44.4084 44.54 50.0051 37.639 50.0051Z" />
<path d="M62.1657 17.479C62.1657 19.9629 60.1517 21.9769 57.6673 21.9769C55.1834 21.9769 53.1694 19.9629 53.1694 17.479C53.1694 14.9946 55.1834 12.9812 57.6673 12.9812C60.1517 12.9812 62.1657 14.9946 62.1657 17.479Z" />
</g>
<defs>
<clipPath id="clip0">
<rect width="75" height="75" fill="white"/>
</clipPath>
</defs>
</svg>
