<svg width="0" height="0" class="hidden">
  <symbol  xmlns="http://www.w3.org/2000/svg" viewBox="0 0 75 75" id="tik-tok">
    <g clip-path="url(#clip0)">
      <path d="M28.592 75c-5.46 0-10.608-1.742-14.89-5.038a24.665 24.665 0 01-2.287-1.996c-4.998-4.94-7.513-11.518-7.08-18.525a23.884 23.884 0 016.008-14.374c4.7-5.263 11.181-8.162 18.25-8.162a24.8 24.8 0 013.648.27l1.875.278v16.639l-2.887-.954a8.259 8.259 0 00-2.6-.419 8.214 8.214 0 00-5.895 2.466 8.165 8.165 0 00-2.365 5.893c.042 2.86 1.55 5.453 4.03 6.939a8.261 8.261 0 006.828.75 8.22 8.22 0 005.66-7.814l.015-17.256V0h15.903l.019 2.177a15.612 15.612 0 006.231 12.35 15.531 15.531 0 009.426 3.15c.081 0 .081 0 .815.05l2.043.144v15.674l-.732-.002h-2.211c-4.234 0-8.203-.807-12.136-2.466a31.634 31.634 0 01-3.414-1.692l.05 21.652c-.027 6.404-2.558 12.411-7.127 16.927a24.166 24.166 0 01-13.53 6.767c-1.2.178-2.427.269-3.647.269zm0-43.7c-5.8 0-11.116 2.377-14.972 6.694a19.478 19.478 0 00-4.9 11.716c-.352 5.72 1.702 11.093 5.784 15.127.59.583 1.222 1.136 1.878 1.641 3.507 2.7 7.73 4.127 12.211 4.127a20.48 20.48 0 003.003-.222 19.795 19.795 0 0011.086-5.544c3.733-3.689 5.8-8.592 5.821-13.806l-.07-30.233 3.55 2.738a27.024 27.024 0 005.988 3.492c2.925 1.235 5.874 1.92 8.972 2.083v-7.097a19.86 19.86 0 01-10.535-3.979 20.001 20.001 0 01-7.843-13.642h-7.27v29.303l-.014 17.256c0 5.453-3.487 10.27-8.677 11.983-1.513.5-3.087.708-4.681.622a12.661 12.661 0 01-5.78-1.773c-3.799-2.272-6.106-6.252-6.17-10.645A12.53 12.53 0 0119.6 42.1a12.573 12.573 0 019.025-3.775c.366 0 .73.016 1.093.047V31.33c-.375-.02-.752-.03-1.127-.03z"></path>
    </g>
    <defs>
      <clipPath id="clip0">
        <path fill="#fff" d="M0 0h75v75H0z"></path>
      </clipPath>
    </defs>
  </symbol>
  <symbol  xmlns="http://www.w3.org/2000/svg" viewBox="0 0 75 75" id="instagram">
    <g clip-path="url(#clip0)">
      <path d="M74.927 22.05c-.176-3.985-.82-6.725-1.744-9.099a18.304 18.304 0 00-4.337-6.65 18.458 18.458 0 00-6.637-4.323C59.821 1.055 57.096.41 53.111.235 49.096.045 47.821 0 37.64 0 27.456 0 26.182.044 22.182.22c-3.985.175-6.725.82-9.098 1.743A18.3 18.3 0 006.432 6.3a18.466 18.466 0 00-4.322 6.637C1.187 15.326.542 18.05.366 22.035c-.19 4.015-.234 5.29-.234 15.472 0 10.183.044 11.458.22 15.457.175 3.986.82 6.725 1.743 9.1a18.495 18.495 0 004.337 6.65 18.457 18.457 0 006.637 4.323c2.388.923 5.113 1.567 9.099 1.743 3.999.176 5.274.22 15.457.22 10.182 0 11.457-.044 15.457-.22 3.985-.176 6.725-.82 9.098-1.743a19.183 19.183 0 0010.974-10.974c.923-2.388 1.568-5.114 1.743-9.099.176-4 .22-5.274.22-15.457 0-10.182-.015-11.457-.19-15.457zm-6.754 30.621c-.162 3.663-.777 5.641-1.29 6.96a12.441 12.441 0 01-7.12 7.12c-1.319.513-3.311 1.129-6.96 1.29-3.956.176-5.142.22-15.149.22-10.007 0-11.208-.044-15.15-.22-3.663-.161-5.64-.777-6.96-1.29a11.54 11.54 0 01-4.306-2.798 11.66 11.66 0 01-2.799-4.307c-.513-1.319-1.128-3.312-1.289-6.96-.176-3.956-.22-5.142-.22-15.15 0-10.006.044-11.208.22-15.149.16-3.663.776-5.64 1.289-6.96a11.4 11.4 0 012.813-4.307 11.643 11.643 0 014.308-2.798c1.318-.513 3.311-1.128 6.96-1.29 3.955-.175 5.142-.22 15.148-.22 10.022 0 11.209.045 15.15.22 3.663.162 5.64.777 6.96 1.29 1.625.6 3.105 1.553 4.307 2.798a11.657 11.657 0 012.798 4.308c.513 1.319 1.128 3.31 1.29 6.96.175 3.955.22 5.142.22 15.148 0 10.008-.045 11.18-.22 15.135z"></path>
      <path d="M37.639 18.241c-10.637 0-19.266 8.63-19.266 19.266 0 10.638 8.63 19.267 19.266 19.267 10.637 0 19.267-8.63 19.267-19.267 0-10.637-8.63-19.266-19.267-19.266zm0 31.764c-6.9 0-12.498-5.597-12.498-12.498 0-6.9 5.598-12.497 12.498-12.497 6.901 0 12.498 5.596 12.498 12.497S44.54 50.005 37.639 50.005zm24.527-32.526a4.498 4.498 0 11-8.997 0 4.498 4.498 0 018.997 0z"></path>
    </g>
    <defs>
      <clipPath id="clip0">
        <path fill="#fff" d="M0 0h75v75H0z"></path>
      </clipPath>
    </defs>
  </symbol>
  <symbol  xmlns="http://www.w3.org/2000/svg" viewBox="0 0 75 75" id="vk">
    <g clip-path="url(#clip0)">
      <path d="M37.953 60.938c10.85 0 6.981-6.87 7.819-8.844-.013-1.475-.025-2.894.025-3.757.687.194 2.31 1.016 5.66 4.272 5.171 5.22 6.493 8.328 10.671 8.328h7.69c2.438 0 3.707-1.009 4.341-1.856.613-.819 1.213-2.256.557-4.494C73 49.2 62.994 39.898 62.372 38.916c.094-.182.244-.422.322-.547h-.007c1.975-2.61 9.513-13.903 10.622-18.422a.06.06 0 00.007-.025c.6-2.063.05-3.4-.52-4.156-.855-1.132-2.218-1.704-4.059-1.704h-7.69c-2.575 0-4.528 1.297-5.516 3.663-1.653 4.203-6.297 12.847-9.778 15.906-.106-4.334-.034-7.643.022-10.103.113-4.797.475-9.465-4.503-9.465H29.184c-3.118 0-6.103 3.406-2.872 7.45 2.825 3.543 1.016 5.518 1.625 15.35-2.375-2.547-6.6-9.425-9.587-18.216-.838-2.378-2.106-4.581-5.678-4.581h-7.69c-3.12 0-4.982 1.7-4.982 4.546 0 6.394 14.153 42.326 37.953 42.326zM12.672 18.752c.678 0 .747 0 1.25 1.428 3.06 9.01 9.922 22.34 14.934 22.34 3.766 0 3.766-3.858 3.766-5.312l-.003-11.568c-.206-3.828-1.6-5.735-2.516-6.891l10.963.012c.006.054-.063 12.797.03 15.885 0 4.384 3.482 6.897 8.917 1.397 5.734-6.472 9.7-16.147 9.859-16.54.234-.563.437-.754 1.175-.754h7.722c-.003.01-.003.019-.007.028-.703 3.281-7.643 13.738-9.965 16.985a2.73 2.73 0 00-.106.156c-1.022 1.669-1.854 3.512.14 6.106h.003c.182.219.653.731 1.341 1.444 2.138 2.206 9.469 9.75 10.119 12.75-.431.069-.9.018-8.166.034-1.547 0-2.756-2.312-7.372-6.969-4.15-4.037-6.843-5.687-9.297-5.687-4.762 0-4.415 3.865-4.372 8.54.016 5.07-.015 3.466.02 3.785-.279.11-1.076.328-3.154.328-19.828 0-32.74-31.472-33.237-37.487.171-.016 2.537-.007 7.956-.01z"></path>
    </g>
    <defs>
      <clipPath id="clip0">
        <path fill="#fff" d="M0 0h75v75H0z"></path>
      </clipPath>
    </defs>
  </symbol>
  <symbol xmlns="http://www.w3.org/2000/svg" viewBox="0 0 75 75" id="youtube">
    <path d="M68.06 37.97c-.775-3.367-3.529-5.85-6.844-6.22-7.848-.877-15.796-.881-23.705-.877-7.912-.004-15.858 0-23.709.877-3.313.37-6.066 2.854-6.84 6.22C5.858 42.765 5.845 48 5.845 52.936c0 4.937 0 10.17 1.104 14.965.774 3.366 3.526 5.85 6.841 6.22 7.85.878 15.796.882 23.707.878 7.912.004 15.857 0 23.708-.877 3.314-.37 6.068-2.855 6.842-6.221 1.103-4.795 1.109-10.028 1.109-14.965-.001-4.938.007-10.171-1.096-14.966zm-44.157 3.716h-4.582v24.349h-4.256V41.686h-4.499v-3.988h13.338v3.988zm11.561 24.35h-3.829v-2.304c-1.52 1.744-2.965 2.594-4.372 2.594-1.233 0-2.082-.5-2.465-1.569-.208-.639-.337-1.65-.337-3.14V44.921h3.825v15.546c0 .896 0 1.362.035 1.488.092.594.382.895.895.895.768 0 1.57-.592 2.418-1.792V44.921h3.83v21.115zm14.535-6.337c0 1.952-.132 3.36-.387 4.254-.511 1.57-1.535 2.373-3.056 2.373-1.362 0-2.675-.756-3.955-2.336v2.047h-3.825V37.698H42.6v9.255c1.236-1.521 2.548-2.29 3.955-2.29 1.522 0 2.546.8 3.056 2.382.257.849.387 2.245.387 4.244v8.41zm14.439-3.523h-7.652v3.742c0 1.955.64 2.93 1.955 2.93.942 0 1.49-.511 1.708-1.533.036-.208.087-1.058.087-2.593h3.903v.559c0 1.233-.048 2.082-.082 2.465a5.452 5.452 0 01-.894 2.291c-1.06 1.534-2.629 2.29-4.627 2.29-2.002 0-3.525-.72-4.631-2.162-.812-1.057-1.228-2.721-1.228-4.965v-7.396c0-2.257.37-3.908 1.182-4.975 1.105-1.444 2.628-2.164 4.582-2.164 1.92 0 3.442.72 4.514 2.164.801 1.067 1.184 2.718 1.184 4.975v4.372h-.001z"></path>
    <path d="M58.707 48.107c-1.279 0-1.92.977-1.92 2.929v1.954h3.825v-1.954c0-1.952-.64-2.929-1.905-2.929zm-14.199 0c-.63 0-1.268.298-1.908.93v12.87c.639.64 1.278.943 1.908.943 1.104 0 1.665-.943 1.665-2.85v-9.012c0-1.904-.561-2.88-1.665-2.88zm2.138-19.18c1.41 0 2.877-.857 4.416-2.62v2.327h3.867V7.295h-3.867v16.31c-.856 1.21-1.669 1.809-2.442 1.809-.518 0-.822-.306-.906-.906-.048-.126-.048-.597-.048-1.503V7.295h-3.854v16.873c0 1.507.13 2.527.343 3.173.388 1.081 1.246 1.586 2.49 1.586zm-26.919-11.89v11.597h4.288V17.037L29.173 0h-4.336l-2.925 11.245L18.868 0h-4.512c.904 2.654 1.845 5.322 2.749 7.978 1.375 3.994 2.234 7.004 2.622 9.059zm15.193 11.89c1.937 0 3.442-.73 4.51-2.185.811-1.068 1.2-2.75 1.2-5.018v-7.472c0-2.281-.388-3.949-1.2-5.026-1.068-1.46-2.572-2.189-4.51-2.189-1.927 0-3.432.729-4.502 2.189-.822 1.077-1.21 2.745-1.21 5.026v7.472c0 2.268.389 3.95 1.21 5.018 1.07 1.456 2.575 2.185 4.502 2.185zm-1.846-15.45c0-1.974.6-2.959 1.846-2.959s1.843.984 1.843 2.959v8.976c0 1.974-.597 2.962-1.843 2.962-1.247 0-1.846-.988-1.846-2.962v-8.976z"></path>
  </symbol>
</svg>