<svg width="75" height="75" viewBox="0 0 75 75" fill="none" xmlns="http://www.w3.org/2000/svg">
<g clip-path="url(#clip0)">
<path d="M28.5922 75C23.1328 75 17.9838 73.2583 13.7021 69.9624C12.9023 69.3472 12.1332 68.6748 11.4155 67.9658C6.41742 63.0264 3.90229 56.4478 4.33442 49.4414C4.66108 44.146 6.79389 39.041 10.3432 35.0669C15.0439 29.8037 21.5244 26.9048 28.5937 26.9048C29.808 26.9048 31.0341 26.9956 32.2412 27.1743L34.1161 27.4526V44.0918L31.2289 43.1382C30.3881 42.8599 29.5136 42.7192 28.6288 42.7192C26.3935 42.7192 24.3002 43.5952 22.7343 45.1846C21.1757 46.7666 20.3364 48.8584 20.3686 51.0776C20.4111 53.9385 21.9184 56.5312 24.3998 58.0166C25.5424 58.6992 26.8432 59.0991 28.1645 59.1724C29.2075 59.2295 30.2372 59.0933 31.2275 58.7666C34.6127 57.6489 36.8876 54.5083 36.8876 50.9531L36.9023 33.6973V0H52.8046L52.8237 2.17676C52.8325 3.1626 52.9335 4.14844 53.124 5.10352C53.871 8.85938 55.9775 12.2065 59.0551 14.5269C61.787 16.5879 65.0478 17.6763 68.4814 17.6763C68.562 17.6763 68.562 17.6763 69.2958 17.7275L71.3393 17.8711V31.3477V33.5449L70.6069 33.5435H69.1464C69.1347 33.5435 69.123 33.5435 69.1098 33.5435H68.4081C68.4052 33.5435 68.4008 33.5435 68.3964 33.5435C64.1616 33.5435 60.1933 32.7363 56.2602 31.0767C55.0883 30.5815 53.9472 30.0161 52.8456 29.3848L52.8954 51.0366C52.8691 57.4409 50.3378 63.4482 45.769 67.9644C42.0615 71.6279 37.3828 73.9688 32.2382 74.7305C31.0385 74.9092 29.8124 75 28.5922 75ZM28.5922 31.2993C22.7929 31.2993 17.4755 33.6768 13.6201 37.9937C10.7255 41.2354 8.98529 45.397 8.71869 49.7109C8.36713 55.4311 10.4208 60.8042 14.5034 64.8384C15.0937 65.4214 15.725 65.9736 16.3813 66.479C19.8881 69.1787 24.1113 70.6055 28.5922 70.6055C29.5971 70.6055 30.6064 70.5308 31.5952 70.3843C35.8095 69.7603 39.643 67.8428 42.6811 64.8398C46.4135 61.1514 48.4804 56.2485 48.5024 51.0337L48.4335 20.8008L51.9828 23.5386C53.8154 24.9521 55.831 26.127 57.9711 27.0308C60.8964 28.2656 63.8452 28.9512 66.9433 29.1138V22.0166C63.1142 21.7295 59.4975 20.3687 56.4081 18.0381C52.4677 15.0674 49.7709 10.7783 48.8129 5.96338C48.7104 5.44629 48.6269 4.92334 48.5654 4.396H41.2953V33.6987L41.2807 50.9546C41.2807 56.4082 37.7944 61.2246 32.6044 62.9385C31.0912 63.438 29.5165 63.646 27.9228 63.5596C25.8925 63.4482 23.8945 62.8345 22.1425 61.7871C18.3442 59.5151 16.0371 55.5352 15.9726 51.1421C15.9228 47.7378 17.2104 44.5269 19.601 42.0996C21.999 39.665 25.204 38.3247 28.6259 38.3247C28.9921 38.3247 29.3554 38.3408 29.7187 38.3716V31.3301C29.3437 31.3096 28.9672 31.2993 28.5922 31.2993Z" />
</g>
<defs>
<clipPath id="clip0">
<rect width="75" height="75" fill="white"/>
</clipPath>
</defs>
</svg>
