<svg width="75" height="75" viewBox="0 0 75 75" fill="none" xmlns="http://www.w3.org/2000/svg">
<g clip-path="url(#clip0)">
<path d="M37.9531 60.9375C48.8031 60.9375 44.9344 54.0687 45.7719 52.0938C45.7594 50.6188 45.7469 49.2 45.7969 48.3375C46.4844 48.5312 48.1062 49.3531 51.4562 52.6094C56.6281 57.8281 57.95 60.9375 62.1281 60.9375H69.8187C72.2562 60.9375 73.525 59.9281 74.1594 59.0812C74.7719 58.2625 75.3719 56.825 74.7156 54.5875C73 49.2 62.9937 39.8969 62.3719 38.9156C62.4656 38.7344 62.6156 38.4937 62.6938 38.3687H62.6875C64.6625 35.7594 72.2 24.4656 73.3094 19.9469C73.3125 19.9406 73.3156 19.9313 73.3156 19.9219C73.9156 17.8594 73.3656 16.5219 72.7969 15.7656C71.9406 14.6344 70.5781 14.0625 68.7375 14.0625H61.0469C58.4719 14.0625 56.5188 15.3594 55.5312 17.725C53.8781 21.9281 49.2344 30.5719 45.7531 33.6313C45.6469 29.2969 45.7188 25.9875 45.775 23.5281C45.8875 18.7312 46.25 14.0625 41.2719 14.0625H29.1844C26.0656 14.0625 23.0812 17.4687 26.3125 21.5125C29.1375 25.0562 27.3281 27.0312 27.9375 36.8625C25.5625 34.3156 21.3375 27.4375 18.35 18.6469C17.5125 16.2688 16.2437 14.0656 12.6719 14.0656H4.98125C1.8625 14.0656 0 15.7656 0 18.6125C0 25.0062 14.1531 60.9375 37.9531 60.9375ZM12.6719 18.7531C13.35 18.7531 13.4187 18.7531 13.9219 20.1813C16.9812 29.1906 23.8438 42.5219 28.8563 42.5219C32.6219 42.5219 32.6219 38.6625 32.6219 37.2094L32.6187 25.6406C32.4125 21.8125 31.0188 19.9062 30.1031 18.75L41.0656 18.7625C41.0719 18.8156 41.0031 31.5594 41.0969 34.6469C41.0969 39.0312 44.5781 41.5438 50.0125 36.0438C55.7469 29.5719 59.7125 19.8969 59.8719 19.5031C60.1063 18.9406 60.3094 18.75 61.0469 18.75H68.7375H68.7688C68.7656 18.7594 68.7656 18.7687 68.7625 18.7781C68.0594 22.0594 61.1188 32.5156 58.7969 35.7625C58.7594 35.8125 58.725 35.8656 58.6906 35.9188C57.6688 37.5875 56.8375 39.4312 58.8312 42.025H58.8344C59.0156 42.2437 59.4875 42.7563 60.175 43.4688C62.3125 45.675 69.6437 53.2188 70.2937 56.2188C69.8625 56.2875 69.3938 56.2375 62.1281 56.2531C60.5813 56.2531 59.3719 53.9406 54.7562 49.2844C50.6062 45.2469 47.9125 43.5969 45.4594 43.5969C40.6969 43.5969 41.0438 47.4625 41.0875 52.1375C41.1031 57.2062 41.0719 55.6031 41.1063 55.9219C40.8281 56.0312 40.0312 56.25 37.9531 56.25C18.125 56.25 5.2125 24.7781 4.71562 18.7625C4.8875 18.7469 7.25312 18.7562 12.6719 18.7531Z" />
</g>
<defs>
<clipPath id="clip0">
<rect width="75" height="75" fill="white"/>
</clipPath>
</defs>
</svg>
