<svg width="75" height="75" viewBox="0 0 75 75"  xmlns="http://www.w3.org/2000/svg">
<path d="M68.0605 37.9702C67.2855 34.6031 64.5312 32.1192 61.2162 31.7495C53.3677 30.8728 45.42 30.8686 37.5112 30.8728C29.599 30.8686 21.6529 30.8728 13.802 31.7495C10.4886 32.1201 7.73596 34.6039 6.96178 37.9702C5.85842 42.765 5.84518 47.999 5.84518 52.936C5.84518 57.873 5.84518 63.1061 6.94855 67.9009C7.72273 71.2673 10.4754 73.7511 13.7904 74.1216C21.6397 74.9992 29.5858 75.0025 37.4971 74.9992C45.4092 75.0033 53.3536 74.9992 61.2054 74.1216C64.5188 73.7511 67.2731 71.2673 68.0473 67.9009C69.1498 63.1061 69.1556 57.873 69.1556 52.936C69.1548 47.9981 69.1631 42.765 68.0605 37.9702ZM23.9035 41.6864H19.3213V66.0349H15.065V41.6864H10.5663V37.6981H23.9035V41.6864ZM35.464 66.0358H31.6354V63.7323C30.1143 65.4758 28.6702 66.3261 27.2632 66.3261C26.03 66.3261 25.1814 65.8265 24.7984 64.7571C24.59 64.1185 24.461 63.1078 24.461 61.6173V44.9213H28.2864V60.4668C28.2864 61.3634 28.2864 61.8291 28.3211 61.9548C28.4129 62.5487 28.7032 62.8497 29.216 62.8497C29.9836 62.8497 30.7859 62.2584 31.6345 61.0582V44.9213H35.4632L35.464 66.0358ZM49.9989 59.6985C49.9989 61.6513 49.8674 63.0582 49.6118 63.9531C49.1006 65.5238 48.0775 66.3261 46.5556 66.3261C45.1942 66.3261 43.8807 65.5701 42.6012 63.9903V66.0366H38.7758V37.6981H42.6012V46.9527C43.8369 45.4316 45.1487 44.6624 46.5556 44.6624C48.0775 44.6624 49.1015 45.4639 49.6118 47.0445C49.869 47.8939 49.9989 49.2901 49.9989 51.2892V59.6985ZM64.4378 56.1758H56.7862V59.9185C56.7862 61.8729 57.4255 62.8489 58.7406 62.8489C59.6827 62.8489 60.2311 62.3369 60.4494 61.3146C60.485 61.107 60.5355 60.2568 60.5355 58.7225H64.4386V59.2808C64.4386 60.514 64.3914 61.3634 64.3567 61.7456C64.2285 62.5925 63.9274 63.3609 63.4634 64.0375C62.4039 65.5709 60.834 66.3269 58.8357 66.3269C56.8341 66.3269 55.3106 65.6065 54.2047 64.1649C53.3933 63.1078 52.9765 61.4437 52.9765 59.1997V51.8045C52.9765 49.5473 53.3462 47.8964 54.1593 46.8294C55.2643 45.3845 56.787 44.6649 58.7414 44.6649C60.6612 44.6649 62.1831 45.3845 63.255 46.8294C64.0565 47.8964 64.4394 49.5473 64.4394 51.8045V56.1758H64.4378Z" />
<path d="M58.7067 48.1072C57.428 48.1072 56.787 49.084 56.787 51.036V52.9896H60.6124V51.036C60.6115 49.084 59.9722 48.1072 58.7067 48.1072Z" />
<path d="M44.5085 48.1072C43.8783 48.1072 43.2397 48.4049 42.6004 49.0377V61.9067C43.2389 62.5469 43.8783 62.8496 44.5085 62.8496C45.6119 62.8496 46.1727 61.9067 46.1727 60.0002V50.988C46.1727 49.084 45.6119 48.1072 44.5085 48.1072Z" />
<path d="M46.6458 28.9266C48.056 28.9266 49.5233 28.0697 51.0625 26.3063V28.6338H54.9293V7.29517H51.0625V23.6042C50.2056 24.815 49.3934 25.4139 48.6201 25.4139C48.1023 25.4139 47.7979 25.1078 47.7136 24.5082C47.6664 24.3816 47.6664 23.911 47.6664 23.0053V7.29517H43.8121V24.1682C43.8121 25.6752 43.9411 26.6951 44.1545 27.341C44.5432 28.4221 45.401 28.9266 46.6458 28.9266Z" />
<path d="M19.7274 17.0368V28.6338H24.0152V17.0368L29.173 0H24.8373L21.9118 11.2446L18.8681 0H14.3562C15.2602 2.6542 16.2006 5.32164 17.1047 7.97832C18.4801 11.9716 19.3387 14.9823 19.7274 17.0368Z" />
<path d="M34.9198 28.9266C36.8569 28.9266 38.3622 28.1979 39.43 26.7422C40.2414 25.6744 40.6302 23.9921 40.6302 21.7241V14.252C40.6302 11.9708 40.2423 10.3034 39.43 9.22565C38.3622 7.76579 36.8577 7.03711 34.9198 7.03711C32.9926 7.03711 31.4881 7.76579 30.4178 9.22565C29.5965 10.3034 29.2078 11.9708 29.2078 14.252V21.7241C29.2078 23.9921 29.5965 25.6744 30.4178 26.7422C31.4873 28.1979 32.9926 28.9266 34.9198 28.9266ZM33.0745 13.477C33.0745 11.5027 33.6733 10.5184 34.9198 10.5184C36.1663 10.5184 36.7634 11.5019 36.7634 13.477V22.4528C36.7634 24.4271 36.1663 25.4147 34.9198 25.4147C33.6733 25.4147 33.0745 24.4271 33.0745 22.4528V13.477Z" />
</svg>
