<svg width="67" height="67" viewBox="0 0 67 67" fill="none" xmlns="http://www.w3.org/2000/svg">
<path d="M38.0551 25.9801H31.4111V19.3361C31.4111 17.8133 30.1848 16.5869 28.6619 16.5869C27.1391 16.5869 25.9127 17.8133 25.9127 19.3361V25.9801H19.2687C17.7459 25.9801 16.5195 27.2064 16.5195 28.7293C16.5195 30.2522 17.7459 31.4785 19.2687 31.4785H25.9127V38.1225C25.9127 39.6453 27.1391 40.8717 28.6619 40.8717C30.1848 40.8717 31.4111 39.6453 31.4111 38.1225V31.4785H38.0551C39.5779 31.4785 40.8043 30.2522 40.8043 28.7293C40.8043 27.2064 39.5645 25.9801 38.0551 25.9801Z" fill="white"/>
<path d="M28.6754 51.3833C16.1557 51.3833 6.00781 41.249 6.00781 28.7292C6.00781 16.2095 16.1557 6.07512 28.6754 6.07512C41.1951 6.07512 51.3295 16.223 51.3295 28.7292C51.3295 41.2355 41.1816 51.3833 28.6754 51.3833ZM65.709 61.895L50.44 46.6261C54.4426 41.7611 56.8549 35.5214 56.8549 28.7292C56.8549 13.1638 44.2408 0.536255 28.6619 0.536255C13.083 0.536255 0.482422 13.1638 0.482422 28.7292C0.482422 44.2947 13.0965 56.9222 28.6754 56.9222C35.4676 56.9222 41.6937 54.5234 46.5588 50.5208L61.8277 65.7898C62.5285 66.504 64.6713 66.8544 65.7225 65.7898C66.7871 64.7116 66.7871 62.9732 65.709 61.895Z" fill="white"/>
</svg>
